<svg viewBox="0 0 512 512" xmlns="http://www.w3.org/2000/svg">
  <rect width="512" height="512" rx="115" fill="#ffffff"/>
  <!-- radar reticle ring (top emphasis, broken like a scope) -->
  <circle cx="256" cy="256" r="188" fill="none" stroke="#2f6b34" stroke-width="13"/>
  <g stroke="#9fb0a4" stroke-width="8" stroke-linecap="round" fill="none">
    <path d="M150 116 A170 170 0 0 1 362 116"/>
    <line x1="256" y1="58" x2="256" y2="104"/>
    <line x1="150" y1="150" x2="176" y2="176"/>
    <line x1="362" y1="150" x2="336" y2="176"/>
    <circle cx="256" cy="256" r="150" stroke-dasharray="6 30" opacity="0.65"/>
  </g>
  <!-- farmland fan (bottom) -->
  <g fill="none" stroke-linecap="round">
    <path d="M112 336 Q256 296 400 336" stroke="#3f7d34" stroke-width="11"/>
    <path d="M104 372 Q256 322 408 372" stroke="#5ba33f" stroke-width="11"/>
    <path d="M116 408 Q256 360 396 408" stroke="#6fb84a" stroke-width="11"/>
    <path d="M196 424 Q214 366 250 332" stroke="#3f7d34" stroke-width="8"/>
    <path d="M316 424 Q298 366 262 332" stroke="#3f7d34" stroke-width="8"/>
  </g>
  <!-- sprout -->
  <path d="M256 340 C256 300 256 262 256 226" stroke="#3f7d34" stroke-width="13" fill="none" stroke-linecap="round"/>
  <path d="M254 262 C226 258 200 236 196 204 C230 200 258 220 262 254 Z" fill="#6fb84a" stroke="#2f5a26" stroke-width="4"/>
  <path d="M258 244 C286 236 312 212 318 180 C284 178 258 200 254 236 Z" fill="#8ec85a" stroke="#2f5a26" stroke-width="4"/>
</svg>
