<svg viewBox="0 0 512 512" xmlns="http://www.w3.org/2000/svg">
  <defs>
    <linearGradient id="leaf" x1="0" y1="0" x2="1" y2="1">
      <stop offset="0" stop-color="#8fd14f"/><stop offset="1" stop-color="#3f8f3a"/>
    </linearGradient>
    <linearGradient id="leaf2" x1="0" y1="0" x2="1" y2="1">
      <stop offset="0" stop-color="#a7dc63"/><stop offset="1" stop-color="#5aa83f"/>
    </linearGradient>
    <linearGradient id="field" x1="0" y1="0" x2="0" y2="1">
      <stop offset="0" stop-color="#4f9a3e"/><stop offset="1" stop-color="#2b6b30"/>
    </linearGradient>
  </defs>
  <rect width="512" height="512" rx="116" fill="#ffffff"/>
  <!-- ring -->
  <circle cx="256" cy="256" r="188" fill="none" stroke="#2f7a3c" stroke-width="15"/>
  <!-- radar reticle top -->
  <g stroke="#aab8ac" stroke-width="8" stroke-linecap="round" fill="none">
    <path d="M150 118 A168 168 0 0 1 362 118"/>
    <line x1="256" y1="60" x2="256" y2="104"/>
    <line x1="150" y1="150" x2="178" y2="178"/>
    <line x1="362" y1="150" x2="334" y2="178"/>
  </g>
  <!-- field globe (perspective furrows) -->
  <g stroke="url(#field)" stroke-width="11" fill="none" stroke-linecap="round">
    <path d="M118 342 Q256 300 396 342"/>
    <path d="M106 378 Q256 328 406 378"/>
    <path d="M120 414 Q256 366 392 414"/>
    <path d="M256 330 Q214 380 178 428"/>
    <path d="M256 330 Q298 380 334 428"/>
    <path d="M256 330 L256 430"/>
  </g>
  <!-- sprout stem -->
  <path d="M256 344 C256 300 256 262 258 232" stroke="#3f8f3a" stroke-width="15" fill="none" stroke-linecap="round"/>
  <!-- left leaf (smaller) -->
  <path d="M252 274 C220 272 190 250 182 214 C222 208 254 228 260 266 Z" fill="url(#leaf2)" stroke="#2f5a26" stroke-width="4"/>
  <!-- right leaf (big, curving up-right) -->
  <path d="M258 250 C280 214 322 194 360 198 C356 244 322 282 272 288 C266 276 260 262 258 250 Z" fill="url(#leaf)" stroke="#2f5a26" stroke-width="4"/>
</svg>
